<?xml version="1.0" encoding="UTF-8" standalone="no"?>
<svg
   xmlns:dc="http://purl.org/dc/elements/1.1/"
   xmlns:cc="http://creativecommons.org/ns#"
   xmlns:rdf="http://www.w3.org/1999/02/22-rdf-syntax-ns#"
   xmlns:svg="http://www.w3.org/2000/svg"
   xmlns="http://www.w3.org/2000/svg"
   id="svg12"
   version="1.1"
   height="120"
   width="112.52444"
   viewBox="0 0 33.757335 38">
  <metadata
     id="metadata18">
    <rdf:RDF>
      <cc:Work
         rdf:about="">
        <dc:format>image/svg+xml</dc:format>
        <dc:type
           rdf:resource="http://purl.org/dc/dcmitype/StillImage" />
        <dc:title></dc:title>
      </cc:Work>
    </rdf:RDF>
  </metadata>
  <defs
     id="defs16" />
  <g
     transform="translate(-1.121437)"
     style="fill:#78b657"
     id="g10">
    <path
       id="path2"
       d="m 18,38 c -1.57,0 -2.995,-0.86 -3.766,-2.256 -0.04,-0.053 -0.074,-0.112 -0.105,-0.172 -0.236,-0.475 -0.603,-1.07 -1.013,-1.203 -0.32,-0.107 -0.813,0.017 -1.467,0.36 -0.064,0.032 -0.13,0.06 -0.196,0.08 -1.433,0.664 -3.08,0.5 -4.347,-0.45 -1.256,-0.937 -1.91,-2.477 -1.735,-4.06 0,-0.064 0.002,-0.13 0.013,-0.197 C 5.624,28.552 5.319,28.115 3.837,27.875 3.767,27.863 3.697,27.845 3.629,27.822 2.1,27.496 0.873,26.38 0.393,24.86 -0.083,23.354 0.269,21.72 1.311,20.546 c 0.04,-0.057 0.083,-0.112 0.132,-0.16 1.07,-1.1 1.07,-1.67 0,-2.77 C 1.393,17.566 1.348,17.51 1.31,17.452 0.27,16.276 -0.084,14.645 0.392,13.14 0.872,11.62 2.102,10.504 3.632,10.18 3.698,10.155 3.766,10.137 3.836,10.127 5.319,9.882 5.622,9.445 5.384,7.897 5.376,7.829 5.371,7.763 5.372,7.695 5.199,6.115 5.852,4.577 7.108,3.638 c 1.27,-0.95 2.92,-1.113 4.354,-0.445 0.064,0.02 0.127,0.048 0.19,0.078 0.652,0.343 1.145,0.466 1.466,0.36 0.41,-0.132 0.777,-0.726 1.012,-1.202 0.03,-0.062 0.066,-0.12 0.106,-0.175 C 15.008,0.86 16.43,0 18,0 c 1.572,0 2.998,0.862 3.77,2.263 0.036,0.05 0.07,0.107 0.1,0.165 0.235,0.475 0.602,1.07 1.013,1.203 0.317,0.105 0.812,-0.016 1.467,-0.36 0.062,-0.03 0.126,-0.058 0.19,-0.08 1.434,-0.666 3.08,-0.5 4.352,0.446 1.255,0.938 1.907,2.476 1.736,4.056 0,0.067 -0.004,0.134 -0.014,0.202 -0.24,1.55 0.065,1.987 1.547,2.228 0.072,0.012 0.14,0.028 0.208,0.052 1.53,0.327 2.76,1.443 3.238,2.96 0.475,1.508 0.124,3.142 -0.92,4.318 -0.037,0.056 -0.08,0.11 -0.128,0.16 -1.07,1.1 -1.07,1.67 0,2.768 0.05,0.05 0.093,0.104 0.132,0.162 1.04,1.176 1.393,2.808 0.917,4.315 -0.48,1.518 -1.71,2.636 -3.24,2.962 -0.066,0.024 -0.134,0.04 -0.205,0.052 -1.482,0.24 -1.785,0.677 -1.546,2.227 0.01,0.068 0.015,0.137 0.014,0.206 0.172,1.58 -0.48,3.116 -1.736,4.052 -1.268,0.95 -2.914,1.114 -4.35,0.448 -0.066,-0.02 -0.13,-0.048 -0.192,-0.08 -0.656,-0.343 -1.153,-0.464 -1.467,-0.36 -0.41,0.132 -0.777,0.727 -1.014,1.203 -0.027,0.058 -0.062,0.114 -0.1,0.168 C 20.996,37.138 19.57,38 18,38 Z m -1.832,-3.662 c 0.037,0.052 0.07,0.107 0.1,0.165 0.34,0.692 1.004,1.122 1.733,1.122 0.729,0 1.395,-0.43 1.736,-1.122 0.027,-0.057 0.06,-0.11 0.096,-0.16 0.628,-1.2 1.388,-1.93 2.317,-2.232 0.92,-0.298 1.94,-0.16 3.117,0.42 0.062,0.02 0.124,0.047 0.182,0.078 0.66,0.348 1.432,0.29 2.02,-0.15 0.606,-0.452 0.905,-1.218 0.78,-2.002 -0.01,-0.066 -0.014,-0.132 -0.013,-0.197 -0.34,-2.63 0.78,-4.208 3.337,-4.694 0.062,-0.02 0.126,-0.037 0.192,-0.048 0.74,-0.12 1.343,-0.645 1.572,-1.373 0.234,-0.74 0.042,-1.547 -0.502,-2.103 -0.046,-0.048 -0.09,-0.1 -0.126,-0.153 -1.773,-1.92 -1.772,-3.864 0.002,-5.783 0.036,-0.053 0.077,-0.103 0.124,-0.15 0.544,-0.557 0.736,-1.363 0.502,-2.105 -0.23,-0.728 -0.83,-1.254 -1.57,-1.372 -0.07,-0.01 -0.135,-0.027 -0.198,-0.05 -2.552,-0.486 -3.673,-2.064 -3.333,-4.696 0,-0.064 0.005,-0.128 0.014,-0.192 0.125,-0.784 -0.175,-1.55 -0.78,-2.003 -0.59,-0.44 -1.363,-0.498 -2.022,-0.15 -0.06,0.032 -0.12,0.058 -0.182,0.078 -1.18,0.58 -2.202,0.718 -3.118,0.42 -0.93,-0.3 -1.69,-1.032 -2.32,-2.233 C 19.795,3.603 19.763,3.551 19.735,3.495 19.395,2.803 18.729,2.373 18,2.373 c -0.729,0 -1.394,0.43 -1.734,1.122 -0.03,0.058 -0.063,0.114 -0.1,0.167 -0.628,1.196 -1.386,1.926 -2.314,2.227 -0.916,0.298 -1.94,0.16 -3.12,-0.422 C 10.67,5.447 10.61,5.421 10.552,5.391 9.892,5.043 9.119,5.101 8.532,5.539 7.925,5.992 7.625,6.761 7.748,7.543 c 0.01,0.063 0.014,0.127 0.014,0.19 0.34,2.632 -0.78,4.212 -3.336,4.7 -0.063,0.02 -0.127,0.037 -0.195,0.048 -0.74,0.12 -1.34,0.644 -1.57,1.373 -0.235,0.74 -0.043,1.547 0.502,2.103 0.048,0.05 0.09,0.1 0.128,0.156 1.77,1.918 1.77,3.86 -0.002,5.777 -0.037,0.056 -0.078,0.107 -0.126,0.154 -0.544,0.557 -0.737,1.362 -0.503,2.103 0.23,0.73 0.83,1.256 1.572,1.374 0.068,0.012 0.133,0.027 0.196,0.05 2.553,0.486 3.674,2.065 3.332,4.7 0,0.062 -0.004,0.125 -0.014,0.19 -0.124,0.78 0.177,1.55 0.783,2 0.588,0.44 1.36,0.5 2.02,0.15 0.06,-0.032 0.123,-0.058 0.186,-0.078 1.178,-0.58 2.198,-0.718 3.115,-0.42 0.93,0.298 1.688,1.03 2.318,2.226 z" />
    <path
       id="path4"
       d="m 18,20.188 c -1.458,0 -2.84,-0.463 -3.89,-1.304 -1.128,-0.903 -1.75,-2.127 -1.75,-3.445 0,-1.32 0.62,-2.546 1.75,-3.448 2.132,-1.708 5.962,-1.64 8.194,0.145 0.512,0.41 0.595,1.157 0.185,1.668 -0.41,0.513 -1.158,0.596 -1.67,0.185 -1.34,-1.07 -3.978,-1.143 -5.228,-0.144 -0.553,0.443 -0.858,1.01 -0.858,1.592 0,0.582 0.305,1.148 0.858,1.59 0.632,0.507 1.487,0.785 2.407,0.785 0.654,0 1.187,0.532 1.187,1.188 0,0.656 -0.532,1.188 -1.187,1.188 z" />
    <path
       id="path6"
       d="m 17.965,27.247 c -1.547,0 -3.12,-0.463 -4.27,-1.382 -0.512,-0.41 -0.595,-1.158 -0.185,-1.67 0.41,-0.512 1.157,-0.594 1.67,-0.185 1.338,1.072 3.976,1.144 5.226,0.145 0.555,-0.443 0.86,-1.01 0.86,-1.592 0,-0.582 -0.305,-1.15 -0.86,-1.592 -0.63,-0.504 -1.486,-0.782 -2.406,-0.782 -0.656,0 -1.188,-0.532 -1.188,-1.188 0,-0.656 0.532,-1.19 1.188,-1.19 1.458,0.002 2.84,0.465 3.89,1.304 1.128,0.903 1.75,2.128 1.75,3.447 0,1.319 -0.62,2.546 -1.75,3.448 -1.036,0.83 -2.47,1.24 -3.925,1.24 z M 18,13.062 c -0.656,0 -1.188,-0.532 -1.188,-1.188 v -2.59 c 0,-0.656 0.532,-1.188 1.188,-1.188 0.656,0 1.188,0.532 1.188,1.188 v 2.59 c 0,0.657 -0.532,1.188 -1.188,1.188 z" />
    <path
       id="path8"
       d="m 18,29.904 c -0.656,0 -1.188,-0.53 -1.188,-1.188 v -2.59 c 0,-0.658 0.532,-1.19 1.188,-1.19 0.656,0 1.188,0.532 1.188,1.19 v 2.59 c 0,0.656 -0.532,1.188 -1.188,1.188 z" />
  </g>
</svg>
