<?xml version="1.0" encoding="UTF-8" standalone="no"?>
<svg
   xmlns:dc="http://purl.org/dc/elements/1.1/"
   xmlns:cc="http://creativecommons.org/ns#"
   xmlns:rdf="http://www.w3.org/1999/02/22-rdf-syntax-ns#"
   xmlns:svg="http://www.w3.org/2000/svg"
   xmlns="http://www.w3.org/2000/svg"
   id="svg8"
   version="1.1"
   viewBox="0 0 31.750006 19.48296"
   height="19.48296mm"
   width="31.750006mm">
  <defs
     id="defs2" />
  <metadata
     id="metadata5">
    <rdf:RDF>
      <cc:Work
         rdf:about="">
        <dc:format>image/svg+xml</dc:format>
        <dc:type
           rdf:resource="http://purl.org/dc/dcmitype/StillImage" />
        <dc:title></dc:title>
      </cc:Work>
    </rdf:RDF>
  </metadata>
  <g
     transform="translate(-6.8035689,-156.47876)"
     id="layer1">
    <path
       d="m 10.343699,156.47876 c -0.3535794,0.0332 -0.6552044,0.36513 -0.6537612,0.72159 v 14.79262 H 7.4573355 c -0.3550228,0.0332 -0.6552046,0.36512 -0.6537614,0.72159 v 2.52556 c 0,0.37812 0.3434773,0.7216 0.7215909,0.7216 h 30.306818 c 0.378114,0 0.721591,-0.34348 0.721591,-0.7216 v -15.875 c 0,-0.37811 -0.343477,-0.72159 -0.721591,-0.72159 h -2.164772 v -1.44318 c 0,-0.37811 -0.343478,-0.72159 -0.721591,-0.72159 z m 0.789421,1.44318 h 23.090909 v 0.72159 h -5.051137 c -0.378113,0 -0.72159,0.34348 -0.72159,0.72159 H 11.13312 Z m 18.761363,2.16478 h 7.21591 v 1.08238 h -7.21591 z m -18.761363,0.72159 h 17.318182 v 11.18466 H 11.13312 Z m 18.761363,1.80397 h 7.21591 v 6.85512 h -7.21591 z m 0,8.2983 h 7.21591 v 3.60795 h -7.21591 z m 1.736148,1.08239 c -0.378114,0.0173 -0.705716,0.37739 -0.687676,0.7555 0.01804,0.37811 0.377392,0.70572 0.755506,0.68768 h 3.607954 c 0.381,0.005 0.733137,-0.34059 0.733137,-0.72159 0,-0.381 -0.351415,-0.72665 -0.733137,-0.72159 z M 8.2467559,173.43615 H 28.451302 v 1.08238 H 8.2467559 Z"
       id="path2"
       style="fill:#78b657;stroke-width:0.72159094" />
  </g>
</svg>
