<?xml version="1.0" encoding="UTF-8" standalone="no"?>
<svg
   xmlns:dc="http://purl.org/dc/elements/1.1/"
   xmlns:cc="http://creativecommons.org/ns#"
   xmlns:rdf="http://www.w3.org/1999/02/22-rdf-syntax-ns#"
   xmlns:svg="http://www.w3.org/2000/svg"
   xmlns="http://www.w3.org/2000/svg"
   id="svg4"
   version="1.1"
   height="67.536354"
   width="118.85043"
   viewBox="0 0 49.521014 16.321286">
  <metadata
     id="metadata10">
    <rdf:RDF>
      <cc:Work
         rdf:about="">
        <dc:format>image/svg+xml</dc:format>
        <dc:type
           rdf:resource="http://purl.org/dc/dcmitype/StillImage" />
        <dc:title></dc:title>
      </cc:Work>
    </rdf:RDF>
  </metadata>
  <defs
     id="defs8" />
  <path
     style="fill:#78b657"
     id="path2"
     d="M 1.125,-5.9093835 C 0.513,-5.9093835 0,-5.2893832 0,-4.7823832 V 13.225617 c 0,0.59 0.536,1.125 1.125,1.125 h 7.878 c 0.59,0 1.125,-0.537 1.125,-1.126 v -1.124 H 11.2 l 5.247,8.41 c 0.73,1.172 2.166,1.71 3.248,1.72 1.258,0.01 2.28,-0.728 2.866,-1.742 0.666,0.436 1.458,0.616 2.2,0.616 0.816,0 1.68,-0.216 2.443,-0.74 0.435,-0.297 0.832,-0.714 1.108,-1.23 0.49,0.19 1.006,0.28 1.513,0.28 0.807,0 1.664,-0.218 2.427,-0.738 0.448,-0.305 0.862,-0.734 1.143,-1.266 0.682,0.25 1.416,0.317 2.058,0.317 1.45,0 2.57,-0.953 3.15,-2.04 0.576,-1.08 0.77,-2.43 0.087,-3.587 h 0.703 v 1.125 c 0,0.59 0.536,1.125 1.125,1.125 h 7.878 c 0.59,0 1.125,-0.536 1.125,-1.125 V -4.7843832 c 0.003,-0.588 -0.533,-1.1240003 -1.122,-1.1240003 h -7.878 c -0.613,0 -1.125,0.6200003 -1.125,1.1260003 v 1.123 H 35.088 L 25.59,-5.8893835 c -0.09,-0.022 -0.18,-0.02 -0.268,-0.02 -0.278,0 -0.552,0.107 -0.72,0.247 l -2.41,2.0050003 H 10.13 v -1.125 c 0,-0.59 -0.537,-1.1260003 -1.126,-1.1260003 H 1.124 Z M 2.25,-3.6563832 H 7.88 V 12.100617 H 2.25 V -3.6593832 Z m 39.393,0 H 47.27 V 12.100617 H 41.643 V -2.3223832 c 0.017,-0.11 0.017,-0.224 0,-0.334 v -1.001 z m -16.02,0.088 9.003,2.128 c 0.086,0.022 0.175,0.034 0.264,0.035 h 4.502 v 11.255 H 37.334 L 31.918,0.82961692 c -0.297,-0.497 -1.008,-0.687 -1.512,-0.406 L 20.611,5.8756168 c -1.1,-0.076 -1.738,-0.3769999 -2.074,-0.7199999 -0.365,-0.375 -0.528,-0.867 -0.528,-1.496 0,-0.5660001 0.372,-1.1600001 1.284,-1.9520001 l 0.018,-0.017 6.312,-5.26 z m -15.495,2.162 H 19.5 l -1.65,1.37200012 -0.02,0.017 c -1.122,0.972 -2.074,2.15399988 -2.074,3.67499998 0,1.05 0.306,2.1849999 1.16,3.0599999 0.856,0.875 2.172,1.397 3.87,1.442 0.2,0.005 0.404,-0.044 0.58,-0.142 l 9.18,-5.1 c 0,0 5.9,9.3300002 6.077,9.6540002 0.15,0.276 0.237,0.593 0.237,0.933 0,1.088 -0.882,1.97 -1.97,1.97 -0.683,0 -1.285,-0.347 -1.638,-0.875 -0.21,-0.313 -4.728,-7.6200002 -4.728,-7.6200002 -0.32,-0.494 -1.05,-0.65 -1.548,-0.333 -0.496,0.317 -0.667,1.05 -0.352,1.548 0,0 4.126,6.3300002 4.326,6.7180002 0.56,1.09 -0.225,2.24 -1.125,2.25 -0.575,0.008 -1.082,-0.286 -1.387,-0.725 -0.19,-0.273 -3.853,-6.08 -3.853,-6.08 -0.218,-0.352 -0.643,-0.5640002 -1.055,-0.5280002 -0.773,0.066 -1.27,1.0930002 -0.844,1.7400002 0,0 3.005,4.695 3.2,5.03 0.61,1.047 -0.238,2.236 -1.124,2.252 -0.628,0.01 -1.176,-0.343 -1.466,-0.85 -0.14,-0.248 -2.613,-4.76 -2.613,-4.76 -0.21,-0.4 -0.677,-0.65 -1.125,-0.598 -0.74,0.084 -1.222,1.045 -0.844,1.688 0,0 1.89,2.98 2.11,3.394 0.558,1.046 -0.266,2.235 -1.125,2.25 -0.54,0.01 -1.022,-0.254 -1.332,-0.65 -0.155,-0.197 -5.598,-8.95 -5.598,-8.95 -0.2,-0.32 -0.572,-0.5260002 -0.95,-0.5280002 h -1.688 v -11.254 z m -5.065,10.13 c -0.622,0 -1.125,0.503 -1.125,1.124 0,0.6220002 0.504,1.1250002 1.125,1.1250002 0.622,0 1.126,-0.504 1.125,-1.1250002 0,-0.62 -0.504,-1.125 -1.125,-1.125 z m 39.392,0 c -0.622,0 -1.125,0.503 -1.125,1.124 0,0.6220002 0.504,1.1250002 1.125,1.1250002 0.622,0 1.125,-0.504 1.125,-1.1250002 0,-0.62 -0.504,-1.125 -1.125,-1.125 z" />
</svg>
